<?xml version="1.0" standalone="no"?><!DOCTYPE svg PUBLIC "-//W3C//DTD SVG 1.1//EN" "http://www.w3.org/Graphics/SVG/1.1/DTD/svg11.dtd"><svg t="1636350472254" class="icon" viewBox="0 0 1024 1024" version="1.1" xmlns="http://www.w3.org/2000/svg" p-id="1499" xmlns:xlink="http://www.w3.org/1999/xlink" width="200" height="200"><defs><style type="text/css"></style></defs><path d="M661.665 659.841c-30.719 0-56.32-25.601-56.32-56.319 0-30.724 25.603-56.319 56.32-56.319 30.723 0 56.32 25.597 56.32 56.319 0 32.425-25.597 56.319-56.32 56.319z m0-172.375c-73.387 0-133.117 59.735-133.117 133.122 0 23.891 6.824 47.785 18.773 66.559l11.944 25.603 25.603 51.199 76.797 157.012L767.48 707.628l10.238-18.774c5.121-10.236 10.238-20.479 13.652-32.426 3.414-10.242 5.121-22.187 5.121-34.132-1.705-75.095-61.439-134.83-134.826-134.83z" fill="#1989fa" p-id="1500"></path><path d="M898.893 144.427l-167.251-39.254c-6.827-1.707-11.948 0-18.772 1.707l-196.271 92.161-180.907-76.801c-6.824-3.414-13.652-3.414-20.48 0l-196.266 76.801c-10.238 3.414-17.066 13.652-17.066 25.597v534.188c0 8.535 5.121 18.771 11.945 23.894 6.828 5.121 17.067 6.828 25.602 3.414l184.32-73.386 182.613 75.093c3.415 1.707 6.829 1.707 10.238 1.707 3.414 0 8.535-1.707 11.949-3.414l15.359-6.828-25.603-51.198-1.707 1.707-180.904-75.095c-3.414-1.707-6.824-1.707-10.238-1.707s-6.828 0-10.242 1.707L158.2 717.865V243.412l165.547-64.852 182.613 75.094c6.829 3.414 15.359 3.414 22.188 0l199.681-90.453 136.53 30.719v476.16l-27.305-6.828-13.652 27.308c-1.707 5.121-5.12 10.238-6.828 13.653v1.707l-5.12 11.945 73.387 17.068c8.535 1.703 17.066 0 23.895-5.121 6.824-5.119 10.238-13.65 10.238-22.187l1.707-535.895c-0.002-11.943-8.533-23.889-22.188-27.303z" fill="#1989fa" p-id="1501"></path><path d="M325.1 240.098c-10.769 0-19.498 8.73-19.498 19.5v324.489c0 10.769 8.729 19.499 19.498 19.499 10.77 0 19.5-8.73 19.5-19.499V259.598c0-10.77-8.731-19.5-19.5-19.5zM520.09 302.1c-10.769 0-19.498 8.73-19.498 19.5v154.489c0 10.769 8.729 19.499 19.498 19.499 10.77 0 19.5-8.73 19.5-19.499V321.6c0-10.77-8.731-19.5-19.5-19.5zM730.079 215.104c-10.769 0-19.499 8.73-19.499 19.499v184.49c0 10.768 8.73 19.498 19.499 19.498 10.77 0 19.5-8.73 19.5-19.498v-184.49c0-10.769-8.73-19.499-19.5-19.499z" fill="#1989fa" p-id="1502"></path></svg>