<?xml version="1.0" standalone="no"?><!DOCTYPE svg PUBLIC "-//W3C//DTD SVG 1.1//EN" "http://www.w3.org/Graphics/SVG/1.1/DTD/svg11.dtd"><svg t="1636351858186" class="icon" viewBox="0 0 1024 1024" version="1.1" xmlns="http://www.w3.org/2000/svg" p-id="10299" xmlns:xlink="http://www.w3.org/1999/xlink" width="200" height="200"><defs><style type="text/css"></style></defs><path d="M711.8 835.7H312.2c-17.8 0.1-32.4-14.2-32.5-32V490.5c-0.1-60.9 24.4-119.2 67.9-161.8 91.3-89.3 237.2-89.3 328.5 0 43.5 42.6 68 100.9 67.9 161.8v313.1c0.1 17.6-14.2 32-31.8 32.1h-0.4z m199.8-313.2h-88.8c-17.7 0-32.1-14.3-32.1-32s14.3-32.1 32-32.1H911.6c17.7 0 32.1 14.3 32.1 32s-14.3 32-32.1 32.1z m-710.4 0h-88.8c-17.7 0-32.1-14.3-32.1-32s14.3-32.1 32-32.1H201.2c17.7 0 32.1 14.3 32.1 32s-14.3 32.1-32 32.1h-0.1zM512 216.3c-17.8 0.1-32.4-14.2-32.5-32V96.7c0-18 14.6-32.5 32.5-32.5 18 0 32.5 14.6 32.5 32.5v87.5c-0.1 17.8-14.7 32.2-32.5 32.1z m219.8 89.6c-8.6 0-16.9-3.3-23-9.4-12.5-12.3-12.7-32.4-0.4-44.9 0.1-0.2 0.3-0.3 0.4-0.4l68.8-67.8c12.8-12.5 33.2-12.5 46 0 12.5 12.3 12.7 32.4 0.4 44.9-0.1 0.2-0.3 0.3-0.4 0.4l-68.8 67.8c-6.1 6-14.4 9.4-23 9.4z m-439.5 0c-8.6 0-16.9-3.3-23-9.4l-68.8-67.8c-12.5-12.3-12.7-32.4-0.4-44.9 0.1-0.2 0.3-0.3 0.4-0.4 12.8-12.5 33.2-12.5 46 0l68.8 67.8c12.5 12.3 12.7 32.4 0.4 44.9-0.1 0.2-0.3 0.3-0.4 0.4-6.1 6-14.4 9.4-23 9.4z m563.9 653.9H167.9c-17.7 0-32.1-14.3-32.1-32s14.3-32.1 32-32.1H856c17.7 0 32.1 14.3 32.1 32 0.1 17.7-14.3 32.1-31.9 32.1z" fill="#FB8685" opacity=".89" p-id="10300"></path><path d="M664.7 782.5H365c-14-0.5-24.9-12.2-24.4-26.1V500.7c-0.4-48.9 17.8-96.1 51-132.1 61.5-68 166.6-73.3 234.6-11.8 4.1 3.7 8 7.6 11.8 11.8 33.1 36 51.4 83.2 51 132.1v255.6c0.6 13.8-10.1 25.5-23.9 26.1-0.2 0.1-0.3 0.1-0.4 0.1z" fill="#F95456" opacity=".89" p-id="10301"></path><path d="M487.9 504.7H545c18.3 0 33.1 14.8 33.1 33.1v244.7H454.7V537.8c0-18.3 14.9-33.1 33.2-33.1z" fill="#FFB1AE" opacity=".58" p-id="10302"></path></svg>