<?xml version="1.0" standalone="no"?><!DOCTYPE svg PUBLIC "-//W3C//DTD SVG 1.1//EN" "http://www.w3.org/Graphics/SVG/1.1/DTD/svg11.dtd"><svg t="1636352963531" class="icon" viewBox="0 0 1024 1024" version="1.1" xmlns="http://www.w3.org/2000/svg" p-id="11706" xmlns:xlink="http://www.w3.org/1999/xlink" width="200" height="200"><defs><style type="text/css"></style></defs><path d="M792.16 424.32h76a7.2 7.2 0 0 1 7.2 7.2V595.2h-90.4V432a7.2 7.2 0 0 1 7.2-7.68z" fill="#0795FF" p-id="11707"></path><path d="M324.96 296.8h25.92a4.96 4.96 0 0 1 4.96 4.96v86.4H320v-86.4a4.96 4.96 0 0 1 4.96-4.96z" fill="#156CDD" p-id="11708"></path><path d="M320 347.52h57.28a11.68 11.68 0 0 1 11.68 11.68v316.32H320v-328z" fill="#156CDD" p-id="11709"></path><path d="M320 375.68h131.68V896h-61.76A69.92 69.92 0 0 1 320 826.08V375.68zM602.24 155.36l-108.96 62.88a11.52 11.52 0 0 0-5.92 10.08v280.96a11.68 11.68 0 0 0 11.68 11.68h217.92a11.68 11.68 0 0 0 11.68-11.68V228.32a11.52 11.52 0 0 0-5.92-10.08l-108.96-62.88a11.36 11.36 0 0 0-11.52 0z" fill="#156CDD" p-id="11710"></path><path d="M602.24 228.8l-144 83.68a11.68 11.68 0 0 0-5.76 10.08V896h311.84V322.56a11.68 11.68 0 0 0-5.76-10.08l-144-83.68a11.36 11.36 0 0 0-12.32 0zM595.04 128h25.92a4.96 4.96 0 0 1 4.96 4.96v86.4h-35.84v-86.4a4.96 4.96 0 0 1 4.96-4.96z" fill="#156CDD" p-id="11711"></path><path d="M817.28 388.32h25.92a4.96 4.96 0 0 1 4.96 4.96V480h-36v-86.4a4.96 4.96 0 0 1 5.12-5.28z" fill="#0795FF" p-id="11712"></path><path d="M502.88 342.56m4.64 0l13.12 0q4.64 0 4.64 4.64l0 28.16q0 4.64-4.64 4.64l-13.12 0q-4.64 0-4.64-4.64l0-28.16q0-4.64 4.64-4.64Z" fill="#CCD8E5" p-id="11713"></path><path d="M549.76 342.56m4.64 0l13.12 0q4.64 0 4.64 4.64l0 28.16q0 4.64-4.64 4.64l-13.12 0q-4.64 0-4.64-4.64l0-28.16q0-4.64 4.64-4.64Z" fill="#CCD8E5" p-id="11714"></path><path d="M596.8 342.56m4.64 0l13.12 0q4.64 0 4.64 4.64l0 28.16q0 4.64-4.64 4.64l-13.12 0q-4.64 0-4.64-4.64l0-28.16q0-4.64 4.64-4.64Z" fill="#CCD8E5" p-id="11715"></path><path d="M643.84 342.56m4.64 0l13.12 0q4.64 0 4.64 4.64l0 28.16q0 4.64-4.64 4.64l-13.12 0q-4.64 0-4.64-4.64l0-28.16q0-4.64 4.64-4.64Z" fill="#CCD8E5" p-id="11716"></path><path d="M690.72 342.56m4.64 0l13.12 0q4.64 0 4.64 4.64l0 28.16q0 4.64-4.64 4.64l-13.12 0q-4.64 0-4.64-4.64l0-28.16q0-4.64 4.64-4.64Z" fill="#FFFFFF" p-id="11717"></path><path d="M502.88 408.32m4.64 0l13.12 0q4.64 0 4.64 4.64l0 28.16q0 4.64-4.64 4.64l-13.12 0q-4.64 0-4.64-4.64l0-28.16q0-4.64 4.64-4.64Z" fill="#FFFFFF" p-id="11718"></path><path d="M549.76 408.32m4.64 0l13.12 0q4.64 0 4.64 4.64l0 28.16q0 4.64-4.64 4.64l-13.12 0q-4.64 0-4.64-4.64l0-28.16q0-4.64 4.64-4.64Z" fill="#CCD8E5" p-id="11719"></path><path d="M596.8 408.32m4.64 0l13.12 0q4.64 0 4.64 4.64l0 28.16q0 4.64-4.64 4.64l-13.12 0q-4.64 0-4.64-4.64l0-28.16q0-4.64 4.64-4.64Z" fill="#0795FF" p-id="11720"></path><path d="M643.84 408.32m4.64 0l13.12 0q4.64 0 4.64 4.64l0 28.16q0 4.64-4.64 4.64l-13.12 0q-4.64 0-4.64-4.64l0-28.16q0-4.64 4.64-4.64Z" fill="#CCD8E5" p-id="11721"></path><path d="M690.72 408.32m4.64 0l13.12 0q4.64 0 4.64 4.64l0 28.16q0 4.64-4.64 4.64l-13.12 0q-4.64 0-4.64-4.64l0-28.16q0-4.64 4.64-4.64Z" fill="#CCD8E5" p-id="11722"></path><path d="M502.88 474.08m4.64 0l13.12 0q4.64 0 4.64 4.64l0 28.16q0 4.64-4.64 4.64l-13.12 0q-4.64 0-4.64-4.64l0-28.16q0-4.64 4.64-4.64Z" fill="#CCD8E5" p-id="11723"></path><path d="M549.76 474.08m4.64 0l13.12 0q4.64 0 4.64 4.64l0 28.16q0 4.64-4.64 4.64l-13.12 0q-4.64 0-4.64-4.64l0-28.16q0-4.64 4.64-4.64Z" fill="#CCD8E5" p-id="11724"></path><path d="M596.8 474.08m4.64 0l13.12 0q4.64 0 4.64 4.64l0 28.16q0 4.64-4.64 4.64l-13.12 0q-4.64 0-4.64-4.64l0-28.16q0-4.64 4.64-4.64Z" fill="#CCD8E5" p-id="11725"></path><path d="M643.84 474.08m4.64 0l13.12 0q4.64 0 4.64 4.64l0 28.16q0 4.64-4.64 4.64l-13.12 0q-4.64 0-4.64-4.64l0-28.16q0-4.64 4.64-4.64Z" fill="#FFFFFF" p-id="11726"></path><path d="M690.72 474.08m4.64 0l13.12 0q4.64 0 4.64 4.64l0 28.16q0 4.64-4.64 4.64l-13.12 0q-4.64 0-4.64-4.64l0-28.16q0-4.64 4.64-4.64Z" fill="#CCD8E5" p-id="11727"></path><path d="M502.88 539.68m4.64 0l13.12 0q4.64 0 4.64 4.64l0 28.16q0 4.64-4.64 4.64l-13.12 0q-4.64 0-4.64-4.64l0-28.16q0-4.64 4.64-4.64Z" fill="#CCD8E5" p-id="11728"></path><path d="M549.76 539.68m4.64 0l13.12 0q4.64 0 4.64 4.64l0 28.16q0 4.64-4.64 4.64l-13.12 0q-4.64 0-4.64-4.64l0-28.16q0-4.64 4.64-4.64Z" fill="#FFFFFF" p-id="11729"></path><path d="M596.8 539.68m4.64 0l13.12 0q4.64 0 4.64 4.64l0 28.16q0 4.64-4.64 4.64l-13.12 0q-4.64 0-4.64-4.64l0-28.16q0-4.64 4.64-4.64Z" fill="#CCD8E5" p-id="11730"></path><path d="M643.84 539.68m4.64 0l13.12 0q4.64 0 4.64 4.64l0 28.16q0 4.64-4.64 4.64l-13.12 0q-4.64 0-4.64-4.64l0-28.16q0-4.64 4.64-4.64Z" fill="#CCD8E5" p-id="11731"></path><path d="M690.72 539.68m4.64 0l13.12 0q4.64 0 4.64 4.64l0 28.16q0 4.64-4.64 4.64l-13.12 0q-4.64 0-4.64-4.64l0-28.16q0-4.64 4.64-4.64Z" fill="#CCD8E5" p-id="11732"></path><path d="M502.88 605.44m4.64 0l13.12 0q4.64 0 4.64 4.64l0 28.16q0 4.64-4.64 4.64l-13.12 0q-4.64 0-4.64-4.64l0-28.16q0-4.64 4.64-4.64Z" fill="#CCD8E5" p-id="11733"></path><path d="M549.76 605.44m4.64 0l13.12 0q4.64 0 4.64 4.64l0 28.16q0 4.64-4.64 4.64l-13.12 0q-4.64 0-4.64-4.64l0-28.16q0-4.64 4.64-4.64Z" fill="#CCD8E5" p-id="11734"></path><path d="M596.8 605.44m4.64 0l13.12 0q4.64 0 4.64 4.64l0 28.16q0 4.64-4.64 4.64l-13.12 0q-4.64 0-4.64-4.64l0-28.16q0-4.64 4.64-4.64Z" fill="#CCD8E5" p-id="11735"></path><path d="M643.84 605.44m4.64 0l13.12 0q4.64 0 4.64 4.64l0 28.16q0 4.64-4.64 4.64l-13.12 0q-4.64 0-4.64-4.64l0-28.16q0-4.64 4.64-4.64Z" fill="#FFFFFF" p-id="11736"></path><path d="M690.72 605.44m4.64 0l13.12 0q4.64 0 4.64 4.64l0 28.16q0 4.64-4.64 4.64l-13.12 0q-4.64 0-4.64-4.64l0-28.16q0-4.64 4.64-4.64Z" fill="#CCD8E5" p-id="11737"></path><path d="M572.16 704v-28.16a4.64 4.64 0 0 0-4.48-4.64h-13.28a4.64 4.64 0 0 0-4.64 4.64V704z" fill="#CCD8E5" p-id="11738"></path><path d="M619.2 704v-28.16a4.64 4.64 0 0 0-4.64-4.64h-13.12a4.64 4.64 0 0 0-4.64 4.64V704z" fill="#FFFFFF" p-id="11739"></path><path d="M666.24 704v-28.16a4.64 4.64 0 0 0-4.64-4.64h-13.28a4.64 4.64 0 0 0-4.48 4.64V704z" fill="#CCD8E5" p-id="11740"></path><path d="M344.96 416m4.16 0l73.44 0q4.16 0 4.16 4.16l0 7.36q0 4.16-4.16 4.16l-73.44 0q-4.16 0-4.16-4.16l0-7.36q0-4.16 4.16-4.16Z" fill="#0795FF" p-id="11741"></path><path d="M344.96 455.04m4.16 0l73.44 0q4.16 0 4.16 4.16l0 7.36q0 4.16-4.16 4.16l-73.44 0q-4.16 0-4.16-4.16l0-7.36q0-4.16 4.16-4.16Z" fill="#0795FF" p-id="11742"></path><path d="M344.96 494.08m4.16 0l73.44 0q4.16 0 4.16 4.16l0 7.36q0 4.16-4.16 4.16l-73.44 0q-4.16 0-4.16-4.16l0-7.36q0-4.16 4.16-4.16Z" fill="#0795FF" p-id="11743"></path><path d="M344.96 532.96m4.16 0l73.44 0q4.16 0 4.16 4.16l0 7.36q0 4.16-4.16 4.16l-73.44 0q-4.16 0-4.16-4.16l0-7.36q0-4.16 4.16-4.16Z" fill="#0795FF" p-id="11744"></path><path d="M344.96 572m4.16 0l73.44 0q4.16 0 4.16 4.16l0 7.36q0 4.16-4.16 4.16l-73.44 0q-4.16 0-4.16-4.16l0-7.36q0-4.16 4.16-4.16Z" fill="#0795FF" p-id="11745"></path><path d="M344.96 611.04m4.16 0l73.44 0q4.16 0 4.16 4.16l0 7.36q0 4.16-4.16 4.16l-73.44 0q-4.16 0-4.16-4.16l0-7.36q0-4.16 4.16-4.16Z" fill="#0795FF" p-id="11746"></path><path d="M344.96 650.08m4.16 0l73.44 0q4.16 0 4.16 4.16l0 7.36q0 4.16-4.16 4.16l-73.44 0q-4.16 0-4.16-4.16l0-7.36q0-4.16 4.16-4.16Z" fill="#0795FF" p-id="11747"></path><path d="M764.32 455.04H896V896h-131.68z" fill="#0795FF" p-id="11748"></path><path d="M784.96 484.96m4.32 0l12.64 0q4.32 0 4.32 4.32l0 12.64q0 4.32-4.32 4.32l-12.64 0q-4.32 0-4.32-4.32l0-12.64q0-4.32 4.32-4.32Z" fill="#156CDD" p-id="11749"></path><path d="M819.52 484.96m4.32 0l12.64 0q4.32 0 4.32 4.32l0 12.64q0 4.32-4.32 4.32l-12.64 0q-4.32 0-4.32-4.32l0-12.64q0-4.32 4.32-4.32Z" fill="#156CDD" p-id="11750"></path><path d="M854.08 484.96m4.32 0l12.64 0q4.32 0 4.32 4.32l0 12.64q0 4.32-4.32 4.32l-12.64 0q-4.32 0-4.32-4.32l0-12.64q0-4.32 4.32-4.32Z" fill="#156CDD" p-id="11751"></path><path d="M784.96 520.96m4.32 0l12.64 0q4.32 0 4.32 4.32l0 12.64q0 4.32-4.32 4.32l-12.64 0q-4.32 0-4.32-4.32l0-12.64q0-4.32 4.32-4.32Z" fill="#156CDD" p-id="11752"></path><path d="M819.52 520.96m4.32 0l12.64 0q4.32 0 4.32 4.32l0 12.64q0 4.32-4.32 4.32l-12.64 0q-4.32 0-4.32-4.32l0-12.64q0-4.32 4.32-4.32Z" fill="#156CDD" p-id="11753"></path><path d="M854.08 520.96m4.32 0l12.64 0q4.32 0 4.32 4.32l0 12.64q0 4.32-4.32 4.32l-12.64 0q-4.32 0-4.32-4.32l0-12.64q0-4.32 4.32-4.32Z" fill="#156CDD" p-id="11754"></path><path d="M784.96 556.96m4.32 0l12.64 0q4.32 0 4.32 4.32l0 12.64q0 4.32-4.32 4.32l-12.64 0q-4.32 0-4.32-4.32l0-12.64q0-4.32 4.32-4.32Z" fill="#156CDD" p-id="11755"></path><path d="M819.52 556.96m4.32 0l12.64 0q4.32 0 4.32 4.32l0 12.64q0 4.32-4.32 4.32l-12.64 0q-4.32 0-4.32-4.32l0-12.64q0-4.32 4.32-4.32Z" fill="#156CDD" p-id="11756"></path><path d="M854.08 556.96m4.32 0l12.64 0q4.32 0 4.32 4.32l0 12.64q0 4.32-4.32 4.32l-12.64 0q-4.32 0-4.32-4.32l0-12.64q0-4.32 4.32-4.32Z" fill="#156CDD" p-id="11757"></path><path d="M784.96 592.96m4.32 0l12.64 0q4.32 0 4.32 4.32l0 12.64q0 4.32-4.32 4.32l-12.64 0q-4.32 0-4.32-4.32l0-12.64q0-4.32 4.32-4.32Z" fill="#156CDD" p-id="11758"></path><path d="M819.52 592.96m4.32 0l12.64 0q4.32 0 4.32 4.32l0 12.64q0 4.32-4.32 4.32l-12.64 0q-4.32 0-4.32-4.32l0-12.64q0-4.32 4.32-4.32Z" fill="#156CDD" p-id="11759"></path><path d="M854.08 592.96m4.32 0l12.64 0q4.32 0 4.32 4.32l0 12.64q0 4.32-4.32 4.32l-12.64 0q-4.32 0-4.32-4.32l0-12.64q0-4.32 4.32-4.32Z" fill="#156CDD" p-id="11760"></path><path d="M784.96 628.96m4.32 0l12.64 0q4.32 0 4.32 4.32l0 12.64q0 4.32-4.32 4.32l-12.64 0q-4.32 0-4.32-4.32l0-12.64q0-4.32 4.32-4.32Z" fill="#156CDD" p-id="11761"></path><path d="M819.52 628.96m4.32 0l12.64 0q4.32 0 4.32 4.32l0 12.64q0 4.32-4.32 4.32l-12.64 0q-4.32 0-4.32-4.32l0-12.64q0-4.32 4.32-4.32Z" fill="#156CDD" p-id="11762"></path><path d="M854.08 628.96m4.32 0l12.64 0q4.32 0 4.32 4.32l0 12.64q0 4.32-4.32 4.32l-12.64 0q-4.32 0-4.32-4.32l0-12.64q0-4.32 4.32-4.32Z" fill="#156CDD" p-id="11763"></path><path d="M784.96 664.96m4.32 0l12.64 0q4.32 0 4.32 4.32l0 12.64q0 4.32-4.32 4.32l-12.64 0q-4.32 0-4.32-4.32l0-12.64q0-4.32 4.32-4.32Z" fill="#156CDD" p-id="11764"></path><path d="M819.52 664.96m4.32 0l12.64 0q4.32 0 4.32 4.32l0 12.64q0 4.32-4.32 4.32l-12.64 0q-4.32 0-4.32-4.32l0-12.64q0-4.32 4.32-4.32Z" fill="#156CDD" p-id="11765"></path><path d="M854.08 664.96m4.32 0l12.64 0q4.32 0 4.32 4.32l0 12.64q0 4.32-4.32 4.32l-12.64 0q-4.32 0-4.32-4.32l0-12.64q0-4.32 4.32-4.32Z" fill="#156CDD" p-id="11766"></path><path d="M388.64 707.52a5.44 5.44 0 0 1-5.28-6.4l6.4-33.92a48.8 48.8 0 0 0 1.12-10.72 50.08 50.08 0 0 0-31.2-46.4 10.08 10.08 0 0 0-13.92 9.28 124.8 124.8 0 0 1-15.2 59.68 88.8 88.8 0 0 1-77.92 46.08H212.8V880h38.56a157.12 157.12 0 0 1 48 7.84 152.48 152.48 0 0 0 48 7.84h88.32a78.24 78.24 0 0 0 77.6-68.48l10.4-83.36a32 32 0 0 0-32-36.64z" fill="#DFE8F4" p-id="11767"></path><path d="M226.88 880h39.36v-156.16a96 96 0 0 1-13.6 0.96h-25.76z" fill="#CCD8E5" p-id="11768"></path><path d="M130.4 716.96H240a9.12 9.12 0 0 1 9.12 9.12V880a4.8 4.8 0 0 1-4.8 4.8H130.4V716.96z" fill="#156CDD" p-id="11769"></path></svg>