<?xml version="1.0" standalone="no"?><!DOCTYPE svg PUBLIC "-//W3C//DTD SVG 1.1//EN" "http://www.w3.org/Graphics/SVG/1.1/DTD/svg11.dtd"><svg t="1636347938107" class="icon" viewBox="0 0 1024 1024" version="1.1" xmlns="http://www.w3.org/2000/svg" p-id="2042" xmlns:xlink="http://www.w3.org/1999/xlink" width="200" height="200"><defs><style type="text/css"></style></defs><path d="M930.4576 698.5728h-98.4064v-71.68h26.7264V168.7552H351.1808v34.7648h-71.68V97.0752h650.9568z" fill="#AECDFF" p-id="2043"></path><path d="M91.7504 225.1776v594.944h244.1728l114.5344 117.0432 123.648-117.0432h223.8976V225.1776H91.7504z m355.4816 507.648c-24.1664 0-43.776-19.6096-43.776-43.776 0-24.1664 19.6096-43.776 43.776-43.776 24.1664 0 43.776 19.6096 43.776 43.776 0 24.1664-19.6096 43.776-43.776 43.776z m46.4384-153.7024c-6.4512 2.6624-10.5984 9.0624-10.5984 16.2816v17.1008h-71.68v-17.1008c0-36.1984 21.4528-68.5568 54.6304-82.432a49.08032 49.08032 0 0 0 30.0032-48.3328c-1.4848-24.064-21.5552-44.1344-45.6192-45.6192-13.6192-0.8192-26.7264 3.84-36.6592 13.1584a48.5376 48.5376 0 0 0-15.4112 35.6352h-71.68c0-33.1264 13.8752-65.1776 37.9904-87.8592 24.4736-23.04 56.5248-34.5088 90.2144-32.4608 60.5184 3.7376 108.9536 52.224 112.6912 112.6912 3.1744 51.4048-26.5216 99.1744-73.8816 118.9376z" fill="#4D8DFF" p-id="2044"></path></svg>