<?xml version="1.0" standalone="no"?><!DOCTYPE svg PUBLIC "-//W3C//DTD SVG 1.1//EN" "http://www.w3.org/Graphics/SVG/1.1/DTD/svg11.dtd"><svg t="1636343104798" class="icon" viewBox="0 0 1024 1024" version="1.1" xmlns="http://www.w3.org/2000/svg" p-id="1306" xmlns:xlink="http://www.w3.org/1999/xlink" width="200" height="200"><defs><style type="text/css"></style></defs><path d="M840.96 526.7456H149.9648v419.8912h728.2176v-419.8912z" fill="#97D8FF" p-id="1307"></path><path d="M624.64 629.8624c-50.8928 0-94.1568 32.9728-109.7216 78.6432H298.24v130.6112h74.3936v-56.2176h29.952v56.2176h74.3936v-56.2176h37.9392c15.5136 45.6704 58.8288 78.6432 109.7216 78.6432 63.8976 0 115.8656-51.968 115.8656-115.8656 0-63.8464-51.968-115.8144-115.8656-115.8144z m0 157.3376c-22.8864 0-41.472-18.5856-41.472-41.472s18.5856-41.472 41.472-41.472 41.472 18.5856 41.472 41.472-18.5856 41.472-41.472 41.472z" fill="#FFFFFF" p-id="1308"></path><path d="M557.1584 75.1616H469.8112L65.792 472.6272v91.3408h894.464V481.1776z" fill="#00A0FE" p-id="1309"></path></svg>