<?xml version="1.0" standalone="no"?><!DOCTYPE svg PUBLIC "-//W3C//DTD SVG 1.1//EN" "http://www.w3.org/Graphics/SVG/1.1/DTD/svg11.dtd"><svg t="1636348167595" class="icon" viewBox="0 0 1024 1024" version="1.1" xmlns="http://www.w3.org/2000/svg" p-id="3775" xmlns:xlink="http://www.w3.org/1999/xlink" width="200" height="200"><defs><style type="text/css"></style></defs><path d="M240.4864 94.8736h71.68v501.1968h-71.68zM490.6496 415.2832l37.8368 516.2496h374.4256l43.264-516.2496z" fill="#00A0E9" p-id="3776"></path><path d="M717.6192 659.6608c-71.5776 0-129.792-58.2144-129.792-129.792v-9.6256h71.68v9.6256c0 32.0512 26.0608 58.112 58.112 58.112s58.112-26.0608 58.112-58.112v-9.6256h71.68v9.6256c0 71.5776-58.2144 129.792-129.792 129.792z" fill="#FFFFFF" p-id="3777"></path><path d="M463.104 702.6688c-7.3216-97.1264-89.344-173.2096-186.7264-173.2096-98.2016 0-180.2752 76.7488-186.88 174.6944l-15.4112 229.0176h406.3744l-17.3568-230.5024z" fill="#97D8FF" p-id="3778"></path><path d="M139.52 672.3072h268.6464v71.68H139.52zM182.17472 895.83104l4.90496-113.7152 71.61856 3.09248-4.90496 113.7152zM296.9088 785.1776l71.61856-3.08736 4.90496 113.7152-71.61344 3.08736z" fill="#FFFFFF" p-id="3779"></path></svg>