<?xml version="1.0" standalone="no"?><!DOCTYPE svg PUBLIC "-//W3C//DTD SVG 1.1//EN" "http://www.w3.org/Graphics/SVG/1.1/DTD/svg11.dtd"><svg t="1636343534159" class="icon" viewBox="0 0 1024 1024" version="1.1" xmlns="http://www.w3.org/2000/svg" p-id="7650" xmlns:xlink="http://www.w3.org/1999/xlink" width="200" height="200"><defs><style type="text/css"></style></defs><path d="M853.269227 0A128.021333 128.021333 0 0 1 981.333227 128.128v767.744A128.085333 128.085333 0 0 1 853.269227 1024H170.73056A128.021333 128.021333 0 0 1 42.66656 895.872V128.128A128.085333 128.085333 0 0 1 170.73056 0h682.538667zM853.333227 85.333333H170.66656c-23.68 0-42.666667 19.072-42.666667 42.602667v768.128C127.999893 919.637333 147.093227 938.666667 170.66656 938.666667h682.666667c23.68 0 42.666667-19.072 42.666666-42.602667V127.936A42.602667 42.602667 0 0 0 853.333227 85.333333z m-88.341334 173.674667c40.576 40.576 30.442667 213.184-30.464 274.090667l-243.626666 243.626666a43.008 43.008 0 0 1-60.8 0.085334L247.167893 593.92a43.072 43.072 0 0 1 0.085334-60.821333l243.626666-243.626667c60.906667-60.906667 233.514667-71.04 274.090667-30.464z m-182.72 60.906667a86.144 86.144 0 1 0 121.813334 121.813333 86.144 86.144 0 0 0-121.813334-121.813333z" fill="#1989fa" p-id="7651"></path></svg>