<?xml version="1.0" standalone="no"?><!DOCTYPE svg PUBLIC "-//W3C//DTD SVG 1.1//EN" "http://www.w3.org/Graphics/SVG/1.1/DTD/svg11.dtd"><svg t="1636348062261" class="icon" viewBox="0 0 1024 1024" version="1.1" xmlns="http://www.w3.org/2000/svg" p-id="3636" xmlns:xlink="http://www.w3.org/1999/xlink" width="200" height="200"><defs><style type="text/css"></style></defs><path d="M592.0256 550.0416c-21.5552-2.2016-47.8208 16.7936-55.3472 23.6032l-23.8592 21.7088-24.0128-21.0944c-4.864-4.1472-22.8864-18.2784-44.9024-18.2784-12.1856 0-23.3472 0.5632-36.4032 13.2608-6.1952 6.0416-11.2128 21.504-11.008 29.1328 0.8704 41.5232 69.7344 103.4752 116.224 146.1248 34.304-30.5152 69.5296-63.488 92.3136-95.3344 36.1984-50.5856 22.2208-72.6016 15.9232-81.3056-11.5712-15.9744-22.4256-17.1008-28.928-17.8176z" fill="#97D8FF" p-id="3637"></path><path d="M844.6976 389.7856L221.696 384.8192v-0.3072h-71.68v557.9776h730.5728V389.7856h-35.8912z m-181.4016 301.056c-32.2048 45.056-81.0496 88.0128-124.1088 125.8496l-26.9824 23.7056-23.7056-21.1968c-78.2848-69.9904-161.8944-150.8352-163.4816-225.2288-0.6144-27.4944 9.8816-52.5312 30.2592-72.3456 55.0912-53.6576 117.0944-40.6528 156.3136-18.4832 20.48-13.1072 52.1216-27.904 87.2448-24.4224 21.6576 2.1504 52.992 12.288 79.3088 48.6912 23.3984 32.3072 39.8336 86.9376-14.848 163.4304z" fill="#97D8FF" p-id="3638"></path><path d="M93.6448 424.5504l839.0656-1.7408v-46.8992l-419.4304-309.6064-419.6352 314.5216z" fill="#00A0FE" p-id="3639"></path></svg>