<?xml version="1.0" standalone="no"?><!DOCTYPE svg PUBLIC "-//W3C//DTD SVG 1.1//EN" "http://www.w3.org/Graphics/SVG/1.1/DTD/svg11.dtd"><svg t="1636348450601" class="icon" viewBox="0 0 1024 1024" version="1.1" xmlns="http://www.w3.org/2000/svg" p-id="12819" xmlns:xlink="http://www.w3.org/1999/xlink" width="200" height="200"><defs><style type="text/css"></style></defs><path d="M849.170732 0c97.404878 0 174.829268 77.42439 174.829268 174.829268v674.341464c0 97.404878-77.42439 174.829268-174.829268 174.829268H174.829268c-97.404878 0-174.829268-77.42439-174.829268-174.829268V174.829268c0-97.404878 77.42439-174.829268 174.829268-174.829268h674.341464zM422.087805 252.253659c-32.468293 0-64.936585 7.492683-92.409756 22.478048l109.892683 109.892683c7.492683 7.492683 7.492683 19.980488 0 24.97561l-49.95122 49.95122c-7.492683 7.492683-19.980488 7.492683-27.473171 0l-109.892682-107.395122c-14.985366 27.473171-22.478049 59.941463-22.478049 92.409756 0 104.897561 87.414634 189.814634 192.312195 189.814634 29.970732 0 57.443902-7.492683 82.419512-17.482927l144.858537 144.858537c27.473171 27.473171 69.931707 27.473171 97.404878 0l2.497561-2.497561c27.473171-24.97561 27.473171-69.931707 0-94.907317l-149.853659-147.356098c9.990244-22.478049 14.985366-44.956098 14.985366-72.429268 0-107.395122-84.917073-192.312195-192.312195-192.312195z" fill="#1989fa" p-id="12820"></path></svg>