<?xml version="1.0" standalone="no"?><!DOCTYPE svg PUBLIC "-//W3C//DTD SVG 1.1//EN" "http://www.w3.org/Graphics/SVG/1.1/DTD/svg11.dtd"><svg t="1639635296231" class="icon" viewBox="0 0 1024 1024" version="1.1" xmlns="http://www.w3.org/2000/svg" p-id="1860" width="40" height="40" xmlns:xlink="http://www.w3.org/1999/xlink"><defs><style type="text/css"></style></defs><path d="M507.12381 507.12381m-243.809524 0a243.809524 243.809524 0 1 0 487.619047 0 243.809524 243.809524 0 1 0-487.619047 0Z" fill="#3D8AF6" p-id="1861"></path><path d="M753.946819 397.994667a1481.581714 1481.581714 0 0 0 43.934476-32.085334 314.485029 314.485029 0 0 1-57.158705 354.733105q-13.27299-25.84381-26.643504-49.737143a261.880686 261.880686 0 0 0 39.867733-272.910628zM508.879238 185.295238a320.67779 320.67779 0 0 1 192.765562 63.946362q-20.021638 19.348724-38.083048 38.0928A267.410286 267.410286 0 0 0 259.31581 409.687771q-27.394438-1.238552-56.144458-1.628647A319.878095 319.878095 0 0 1 508.879238 185.295238z m97.162972 618.993372A322.677029 322.677029 0 0 1 508.879238 819.2a319.370971 319.370971 0 0 1-313.909638-254.907733q27.843048-0.253562 54.535314-1.326324a266.093714 266.093714 0 0 0 259.413334 203.405409A268.951162 268.951162 0 0 0 586.118095 755.029333q9.294019 24.185905 19.914362 49.259277z" fill="#3D8AF6" opacity=".7" p-id="1862"></path><path d="M823.793371 345.312305a1736.616229 1736.616229 0 0 0 45.641143-38.200076c3.169524-2.750171 6.18301-5.500343 9.313524-8.260267a423.945752 423.945752 0 0 1-92.852419 536.995352q-9.703619-23.035124-20.431238-46.645638-4.87619-10.727619-9.8304-21.172419a353.397029 353.397029 0 0 0 68.15939-422.716952zM512 87.771429a422.365867 422.365867 0 0 1 266.4448 94.198247c-3.501105 2.993981-6.982705 5.851429-10.493562 8.923429-14.940648 12.980419-29.257143 25.941333-43.125028 38.833981a353.4848 353.4848 0 0 0-552.540648 184.515047c-25.22941 0.16579-49.815162 0.867962-73.5232 2.038248A424.296838 424.296838 0 0 1 512 87.771429zM91.292038 565.833143c23.093638 1.248305 47.06499 2.038248 71.670248 2.330819a353.592076 353.592076 0 0 0 457.981562 280.176152c0.838705 1.862705 1.657905 3.715657 2.506362 5.578362q13.819124 30.320152 28.096609 58.709334A424.150552 424.150552 0 0 1 91.292038 565.833143z" fill="#3D8AF6" opacity=".45" p-id="1863"></path><path d="M799.324648 164.308114a451.067124 451.067124 0 0 0-728.502858 253.561905C48.859429 419.352381 27.745524 421.302857 7.801905 423.545905a511.765943 511.765943 0 0 1 839.982324-297.876724q-23.864076 18.305219-48.459581 38.638933zM512 963.047619a450.121143 450.121143 0 0 0 151.873829-26.331429q14.813867 28.350171 29.647238 54.008686A512 512 0 0 1 2.184533 558.275048c19.582781 2.321067 40.257829 4.271543 61.859353 5.851428A451.037867 451.037867 0 0 0 512 963.047619zM963.047619 512a448.863086 448.863086 0 0 0-63.878095-231.355733q23.688533-21.523505 45.202286-42.676419A511.824457 511.824457 0 0 1 819.2 921.6c-6.826667-19.29021-14.37501-39.272838-22.596267-59.743086A450.11139 450.11139 0 0 0 963.047619 512z" fill="#3D8AF6" opacity=".2" p-id="1864"></path></svg>