<?xml version="1.0" standalone="no"?><!DOCTYPE svg PUBLIC "-//W3C//DTD SVG 1.1//EN" "http://www.w3.org/Graphics/SVG/1.1/DTD/svg11.dtd"><svg t="1639634428869" class="icon" viewBox="0 0 1024 1024" version="1.1" xmlns="http://www.w3.org/2000/svg" p-id="8626" width="48" height="48" xmlns:xlink="http://www.w3.org/1999/xlink"><defs><style type="text/css"></style></defs><path d="M512 149.846589a241.435607 241.435607 0 1 0 241.435607 241.435607 241.435607 241.435607 0 0 0-241.435607-241.435607z m0 353.023493a111.587886 111.587886 0 1 1 111.587886-111.587886 111.877724 111.877724 0 0 1-111.587886 111.587886z" fill="#FFC824" p-id="8627"></path><path d="M720.683838 966.032267H526.491933C421.280498 848.647608 178.685536 542.28814 178.685536 391.282196a333.314464 333.314464 0 0 1 666.628928 0c0 75.358053-60.286442 198.829324-173.903199 357.660912A28.983866 28.983866 0 0 0 718.365129 782.564393C840.966884 611.559581 903.282196 479.972828 903.282196 391.282196a391.282196 391.282196 0 0 0-782.564392 0c0 168.396264 231.870931 459.684121 327.807529 574.750071h-144.919332a28.983866 28.983866 0 1 0 0 57.967733H720.683838a28.983866 28.983866 0 1 0 0-57.967733z" fill="#6B400D" p-id="8628"></path><path d="M512 473.886216a82.893858 82.893858 0 0 1-82.604019-82.60402 28.983866 28.983866 0 0 0-57.967733 0 140.571752 140.571752 0 1 0 140.571752-140.571752 28.983866 28.983866 0 0 0 0 57.967733 82.604019 82.604019 0 1 1 0 165.208039z" fill="#6B400D" p-id="8629"></path></svg>