<?xml version="1.0" standalone="no"?><!DOCTYPE svg PUBLIC "-//W3C//DTD SVG 1.1//EN" "http://www.w3.org/Graphics/SVG/1.1/DTD/svg11.dtd"><svg t="1639634771942" class="icon" viewBox="0 0 1024 1024" version="1.1" xmlns="http://www.w3.org/2000/svg" p-id="9794" xmlns:xlink="http://www.w3.org/1999/xlink" width="48" height="48"><defs><style type="text/css"></style></defs><path d="M509.859926 0.040958c-222.890218 0-404.284507 181.291894-404.284507 404.182112 0 125.895726 82.700027 257.290111 144.992557 345.186729 90.799541 128.199634 195.29453 232.090487 225.091729 260.79205a48.842832 48.842832 0 0 0 34.200221 13.797844c12.90188 0 24.999953-4.899643 34.200222-13.700568 29.797199-28.696444 134.189792-132.397864 225.189005-260.78693 62.297649-87.896618 144.992557-219.296122 144.992557-345.186729-0.102396-222.992613-181.491566-404.284507-404.381784-404.284508z m0 581.777515c-97.895575 0-177.493007-79.699828-177.493007-177.595403s79.694708-177.590283 177.493007-177.590283c97.895575 0 177.595403 79.694708 177.595403 177.590283 0 97.992851-79.699828 177.595403-177.595403 177.595403z" fill="#FE5961" p-id="9795"></path><path d="M512 404.4637m-177.65684 0a177.65684 177.65684 0 1 0 355.31368 0 177.65684 177.65684 0 1 0-355.31368 0Z" fill="#FFFFFF" p-id="9796"></path><path d="M509.952083 389.104319m-269.813127 0a269.813127 269.813127 0 1 0 539.626253 0 269.813127 269.813127 0 1 0-539.626253 0Z" fill="#FFFFFF" p-id="9797"></path></svg>