<?xml version="1.0" standalone="no"?><!DOCTYPE svg PUBLIC "-//W3C//DTD SVG 1.1//EN" "http://www.w3.org/Graphics/SVG/1.1/DTD/svg11.dtd"><svg t="1636355721827" class="icon" viewBox="0 0 1024 1024" version="1.1" xmlns="http://www.w3.org/2000/svg" p-id="31547" xmlns:xlink="http://www.w3.org/1999/xlink" width="200" height="200"><defs><style type="text/css"></style></defs><path d="M0 0m273.066667 0l477.866666 0q273.066667 0 273.066667 273.066667l0 477.866666q0 273.066667-273.066667 273.066667l-477.866666 0q-273.066667 0-273.066667-273.066667l0-477.866666q0-273.066667 273.066667-273.066667Z" fill="#F2984E" p-id="31548"></path><path d="M512 648.533333a153.770667 153.770667 0 0 1 153.6-153.6 153.770667 153.770667 0 0 1 153.6 153.6 153.770667 153.770667 0 0 1-153.6 153.6 153.770667 153.770667 0 0 1-153.6-153.6z m146.773333 41.489067l54.749867 54.749867a16.9472 16.9472 0 0 0 12.0832 5.000533 16.9472 16.9472 0 0 0 12.049067-5.000533l24.149333-24.149334a16.913067 16.913067 0 0 0 4.983467-12.066133 17.066667 17.066667 0 0 0-5.000534-12.0832l-54.698666-54.766933a68.608 68.608 0 0 0-17.595734-65.877334 67.874133 67.874133 0 0 0-48.315733-20.0192 68.266667 68.266667 0 0 0-34.645333 9.454934l46.762666 46.762666-24.149333 24.149334-46.762667-46.762667a68.266667 68.266667 0 0 0 10.5472 82.961067 67.857067 67.857067 0 0 0 48.2816 19.950933 68.932267 68.932267 0 0 0 17.629867-2.304zM273.066667 802.133333a34.133333 34.133333 0 0 1-34.133334-34.133333v-512a34.133333 34.133333 0 0 1 34.133334-34.133333h273.066666a34.133333 34.133333 0 0 1 34.133334 34.133333v225.28a187.067733 187.067733 0 0 0-102.4 167.253333 188.398933 188.398933 0 0 0 77.858133 152.234667 34.133333 34.133333 0 0 1-9.591467 1.365333z m17.066666-443.733333v68.266667a17.066667 17.066667 0 0 0 17.066667 17.066666 17.066667 17.066667 0 0 0 17.066667-17.066666v-68.266667a17.066667 17.066667 0 0 0-17.066667-17.066667 17.066667 17.066667 0 0 0-17.066667 17.066667z m0-68.266667a17.066667 17.066667 0 0 0 17.066667 17.066667 17.066667 17.066667 0 0 0 17.066667-17.066667 17.066667 17.066667 0 0 0-17.066667-17.066666 17.066667 17.066667 0 0 0-17.066667 17.066666z m477.866667 201.0112a187.016533 187.016533 0 0 0-102.4-30.344533 188.416 188.416 0 0 0-51.2 7.0656V256a34.133333 34.133333 0 0 1 34.133333-34.133333h85.333334a34.133333 34.133333 0 0 1 34.133333 34.133333v235.1616zM674.133333 290.133333a17.066667 17.066667 0 0 0 17.066667 17.066667 17.066667 17.066667 0 0 0 17.066667-17.066667 17.066667 17.066667 0 0 0-17.066667-17.066666 17.066667 17.066667 0 0 0-17.066667 17.066666z" fill="#FFFFFF" p-id="31549"></path></svg>