<?xml version="1.0" standalone="no"?><!DOCTYPE svg PUBLIC "-//W3C//DTD SVG 1.1//EN" "http://www.w3.org/Graphics/SVG/1.1/DTD/svg11.dtd"><svg t="1636099768050" class="icon" viewBox="0 0 1024 1024" version="1.1" xmlns="http://www.w3.org/2000/svg" p-id="8414" xmlns:xlink="http://www.w3.org/1999/xlink" width="200" height="200"><defs><style type="text/css"></style></defs><path d="M550.272 96.597333l227.285333 52.309334a42.666667 42.666667 0 0 1 33.109334 41.6v8.704c0 24.96 17.237333 46.592 41.557333 52.224l10.666667 2.474666a42.666667 42.666667 0 0 1 33.109333 41.557334v253.226666a341.333333 341.333333 0 0 1-202.837333 311.978667L512 941.098667l-181.162667-80.426667A341.333333 341.333333 0 0 1 128 548.693333V295.466667a42.666667 42.666667 0 0 1 33.066667-41.557334l10.666666-2.474666C196.138667 245.76 213.333333 224.128 213.333333 199.210667v-8.704a42.666667 42.666667 0 0 1 33.109334-41.6l227.285333-52.309334a170.666667 170.666667 0 0 1 76.544 0z m-30.72 182.656a17.066667 17.066667 0 0 0-22.869333 7.765334l-59.904 121.429333-134.016 19.456a17.066667 17.066667 0 0 0-9.472 29.141333l96.981333 94.506667-22.912 133.461333a17.066667 17.066667 0 0 0 24.746667 18.005334L512 640l119.893333 63.018667a17.066667 17.066667 0 0 0 24.746667-18.005334l-22.912-133.461333 96.981333-94.506667a17.066667 17.066667 0 0 0-9.472-29.141333l-133.973333-19.456-59.946667-121.429333a17.066667 17.066667 0 0 0-7.765333-7.765334z" fill="#1989fa" p-id="8415"></path></svg>